<svg width="170" height="170" viewBox="0 0 170 170" fill="none" xmlns="http://www.w3.org/2000/svg">
<rect x="2" y="2" width="166" height="166" rx="45" stroke="#F99708" stroke-width="4"/>
<g clip-path="url(#clip0_1366_533)">
<rect x="10" y="10" width="150" height="150" rx="43" fill="#FEDC9D"/>
<line x1="85.5" y1="9" x2="85.5" y2="161" stroke="#FABE5E" stroke-width="3"/>
<line x1="161" y1="85.5" x2="9" y2="85.5" stroke="#FABE5E" stroke-width="3"/>
<line x1="149.939" y1="150.061" x2="19.9393" y2="20.0607" stroke="#FABE5E" stroke-width="3"/>
<line y1="-1.5" x2="178.191" y2="-1.5" transform="matrix(0.707107 -0.707107 -0.707107 -0.707107 20 148)" stroke="#FABE5E" stroke-width="3"/>
<path d="M121.869 108.913L108.679 88.0737C107.226 85.7831 104.742 84.4106 102.024 84.4106C99.306 84.4106 96.822 85.7831 95.3685 88.0737L82.1702 108.913C80.6357 111.338 80.5412 114.407 81.9227 116.923C83.3042 119.438 85.9502 121 88.8211 121H102.019H115.218C118.089 121 120.735 119.438 122.116 116.923C123.498 114.407 123.408 111.338 121.869 108.913ZM102.024 116.504C100.161 116.504 98.649 114.992 98.649 113.129C98.649 111.266 100.161 109.754 102.024 109.754C103.887 109.754 105.399 111.266 105.399 113.129C105.399 114.992 103.887 116.504 102.024 116.504ZM105.399 103.005C105.399 104.867 103.887 106.379 102.024 106.379C100.161 106.379 98.649 104.867 98.649 103.005V95.1296C98.649 93.2666 100.161 91.7546 102.024 91.7546C103.887 91.7546 105.399 93.2666 105.399 95.1296V103.005Z" fill="#191100"/>
<path fill-rule="evenodd" clip-rule="evenodd" d="M54.3367 78.7156C53.8936 80.7399 53.6601 82.8425 53.6601 84.9996C53.6601 97.294 61.2466 107.825 72.0061 112.151C73.7356 112.846 74.5739 114.811 73.8787 116.541C73.1834 118.27 71.2178 119.108 69.4884 118.413C56.2595 113.095 46.9102 100.143 46.9102 84.9996C46.9102 65.1176 63.0277 49 82.9098 49C100.753 49 115.559 61.9789 118.413 79.0111C118.721 80.8495 117.481 82.5894 115.642 82.8974C113.804 83.2054 112.064 81.9649 111.756 80.1266C110.457 72.3752 106.108 65.6572 99.984 61.2481L93.9527 60.9637C91.732 60.859 90.0368 62.9212 90.5687 65.0794L91.7923 70.045C92.3966 72.4971 91.4152 75.0667 89.3294 76.4912C87.6455 77.6417 85.495 77.8665 83.6093 77.0893L79.4371 75.3697C77.2477 74.4673 74.7482 74.7528 72.8187 76.1256C71.1099 77.3414 70.0481 79.2694 69.9339 81.3634L69.7332 85.0428C73.4429 84.2471 78.5508 83.4792 84.084 86.3525C85.7382 87.2115 86.3829 89.2489 85.524 90.9031C84.665 92.5573 82.6276 93.2017 80.9734 92.3431C78.8169 91.2231 76.8405 90.9585 74.8321 91.0903C75.9227 93.0091 76.6828 95.3941 76.5251 98.1917C76.4093 100.248 76.6534 101.227 76.8597 101.697C77.6094 103.404 76.8337 105.395 75.1271 106.144C73.4206 106.894 71.4294 106.118 70.6798 104.412C69.8782 102.587 69.6392 100.415 69.7859 97.8119C69.8818 96.11 69.2604 94.6741 68.3216 93.469C67.4745 92.3818 66.4413 91.6443 65.3021 90.9018C60.4658 87.7491 56.8575 83.0715 54.3367 78.7156Z" fill="#191100"/>
<circle cx="85" cy="85" r="54.5" stroke="#FABE5E" stroke-width="3"/>
</g>
<rect x="10" y="10" width="150" height="150" rx="43" stroke="#FABE5E" stroke-width="2.5"/>
<defs>
<clipPath id="clip0_1366_533">
<rect x="10" y="10" width="150" height="150" rx="43" fill="white"/>
</clipPath>
</defs>
</svg>
